<svg width="20" height="20" viewBox="0 0 20 20" fill="none" xmlns="http://www.w3.org/2000/svg">
<path d="M1.66406 10.0013C1.66406 14.6037 5.39502 18.3346 9.9974 18.3346C11.3781 18.3346 12.4974 17.2153 12.4974 15.8346V15.418C12.4974 15.031 12.4974 14.8374 12.5188 14.675C12.6665 13.5532 13.5492 12.6704 14.6711 12.5227C14.8335 12.5013 15.027 12.5013 15.4141 12.5013H15.8307C17.2114 12.5013 18.3307 11.382 18.3307 10.0013C18.3307 5.39893 14.5998 1.66797 9.9974 1.66797C5.39502 1.66797 1.66406 5.39893 1.66406 10.0013Z" stroke="#344054" stroke-width="1.67" stroke-linecap="round" stroke-linejoin="round"/>
<path d="M5.83073 10.8346C6.29097 10.8346 6.66406 10.4615 6.66406 10.0013C6.66406 9.54107 6.29097 9.16797 5.83073 9.16797C5.37049 9.16797 4.9974 9.54107 4.9974 10.0013C4.9974 10.4615 5.37049 10.8346 5.83073 10.8346Z" stroke="#344054" stroke-width="1.67" stroke-linecap="round" stroke-linejoin="round"/>
<path d="M13.3307 7.5013C13.791 7.5013 14.1641 7.12821 14.1641 6.66797C14.1641 6.20773 13.791 5.83464 13.3307 5.83464C12.8705 5.83464 12.4974 6.20773 12.4974 6.66797C12.4974 7.12821 12.8705 7.5013 13.3307 7.5013Z" stroke="#344054" stroke-width="1.67" stroke-linecap="round" stroke-linejoin="round"/>
<path d="M8.33073 6.66797C8.79097 6.66797 9.16406 6.29487 9.16406 5.83464C9.16406 5.3744 8.79097 5.0013 8.33073 5.0013C7.87049 5.0013 7.4974 5.3744 7.4974 5.83464C7.4974 6.29487 7.87049 6.66797 8.33073 6.66797Z" stroke="#344054" stroke-width="1.67" stroke-linecap="round" stroke-linejoin="round"/>
</svg>
