<svg width="16" height="16" viewBox="0 0 16 16" fill="none" xmlns="http://www.w3.org/2000/svg">
<g clip-path="url(#clip0_4252_74156)">
<path d="M7.9987 1.3335V3.00016M7.9987 1.3335C4.3168 1.3335 1.33203 4.31826 1.33203 8.00016M7.9987 1.3335C11.6806 1.3335 14.6654 4.31826 14.6654 8.00016M7.9987 13.0002V14.6668M7.9987 14.6668C11.6806 14.6668 14.6654 11.6821 14.6654 8.00016M7.9987 14.6668C4.3168 14.6668 1.33203 11.6821 1.33203 8.00016M2.9987 8.00016H1.33203M14.6654 8.00016H12.9987M12.7176 12.7191L11.5352 11.5366M3.27979 12.7191L4.46347 11.5354M3.27979 3.3335L4.43742 4.49113M12.7176 3.3335L8.99864 7.00016M9.33203 8.00016C9.33203 8.73654 8.73508 9.3335 7.9987 9.3335C7.26232 9.3335 6.66536 8.73654 6.66536 8.00016C6.66536 7.26378 7.26232 6.66683 7.9987 6.66683C8.73508 6.66683 9.33203 7.26378 9.33203 8.00016Z" stroke="#C00101" stroke-width="1.25" stroke-linecap="round" stroke-linejoin="round"/>
</g>
<defs>
<clipPath id="clip0_4252_74156">
<rect width="16" height="16" fill="white"/>
</clipPath>
</defs>
</svg>
