<svg width="17" height="16" viewBox="0 0 17 16" fill="none" xmlns="http://www.w3.org/2000/svg">
<path d="M6.39323 11.3335L3.0599 14.6668M10.3932 11.3335L13.7266 14.6668M8.39323 1.3335V2.66683M8.39323 14.6668V11.3335M3.8599 11.3335H12.9266C13.6733 11.3335 14.0467 11.3335 14.3319 11.1882C14.5828 11.0603 14.7867 10.8564 14.9146 10.6055C15.0599 10.3203 15.0599 9.9469 15.0599 9.20016V4.80016C15.0599 4.05343 15.0599 3.68006 14.9146 3.39484C14.7867 3.14396 14.5828 2.93999 14.3319 2.81215C14.0467 2.66683 13.6733 2.66683 12.9266 2.66683H3.8599C3.11316 2.66683 2.73979 2.66683 2.45458 2.81215C2.20369 2.93999 1.99972 3.14396 1.87189 3.39484C1.72656 3.68006 1.72656 4.05343 1.72656 4.80016V9.20016C1.72656 9.9469 1.72656 10.3203 1.87189 10.6055C1.99972 10.8564 2.20369 11.0603 2.45458 11.1882C2.73979 11.3335 3.11316 11.3335 3.8599 11.3335Z" stroke="#C00101" stroke-width="1.25" stroke-linecap="round" stroke-linejoin="round"/>
</svg>
